<?xml version="1.0" encoding="UTF-8"?>
<!DOCTYPE svg PUBLIC "-//W3C//DTD SVG 1.1//EN" "http://www.w3.org/Graphics/SVG/1.1/DTD/svg11.dtd">
<svg xmlns="http://www.w3.org/2000/svg" version="1.1" width="50px" height="50px" style="shape-rendering:geometricPrecision; text-rendering:geometricPrecision; image-rendering:optimizeQuality; fill-rule:evenodd; clip-rule:evenodd" xmlns:xlink="http://www.w3.org/1999/xlink">
<g><path style="opacity:0.924" fill="#000000" d="M 5.5,4.5 C 18.4131,4.17755 31.2464,4.51089 44,5.5C 44.8217,18.4088 44.6551,31.2421 43.5,44C 30.5912,44.8217 17.7579,44.6551 5,43.5C 4.18703,30.4247 4.3537,17.4247 5.5,4.5 Z M 15.5,13.5 C 18.6571,13.0785 20.9905,14.2452 22.5,17C 20.8008,17.3932 19.3008,16.8932 18,15.5C 17.228,15.6448 16.5613,15.9781 16,16.5C 15.3333,19.5 15.3333,22.5 16,25.5C 16.5613,26.0219 17.228,26.3552 18,26.5C 22.128,23.6255 22.9613,24.1255 20.5,28C 17.975,28.8959 15.8083,28.3959 14,26.5C 12.9784,21.8711 13.4784,17.5377 15.5,13.5 Z M 25.5,13.5 C 26.3764,13.3691 27.0431,13.7025 27.5,14.5C 29.5772,25.0535 31.4106,25.0535 33,14.5C 33.8928,13.2888 34.7261,13.2888 35.5,14.5C 34.2866,19.7022 32.6199,24.7022 30.5,29.5C 29.914,29.2907 29.414,28.9574 29,28.5C 27.6719,23.522 26.5053,18.522 25.5,13.5 Z M 13.5,33.5 C 20.8635,33.1694 28.1968,33.5027 35.5,34.5C 31.8333,34.8333 28.1667,35.1667 24.5,35.5C 20.4348,35.4888 16.7681,34.8222 13.5,33.5 Z"/></g>
</svg>
